# xmcd
#
# Track frame offsets:
#	182
#	18782
#	37122
#	55097
#	69845
#	84437
#	103095
#	115675
#	136075
#	153705
#	174207
#	192912
#	207362
#	230440
#	247775
#	265575
#	277010
#	299760
#
# Disc length: 4443
#
# Revision: 5
# Processed by: cddbd v1.5.1PL0 Copyright (c) Steve Scherf et al.
# Submitted via: ExactAudioCopy v0.90b4
# Normalized: r4:DSETVAR1
#
DISCID=f4115912
DTITLE=Various Artist - The Blues Experience
DYEAR=1993
DGENRE=Rock
TTITLE0=U2 With BB King - When Loves Comes To Town
TTITLE1=Gary Moore - Still Got The Blues (For You)
TTITLE2=Robbie Robertson - Somewhere Down The Crazy River
TTITLE3=Fleetwood Mac - Black Magic Woman
TTITLE4=Chicken Shack - I'd Rather Go Blind
TTITLE5=Cream - Crossroads
TTITLE6=JJ Cale - Cocaine
TTITLE7=Joe Cocker - Please Don't Let Me Be Understood
TTITLE8=The Robert Cray Band - I Wonder
TTITLE9=The Commitments - Try A Little Tenderness
TTITLE10=Santana - She's Not There
TTITLE11=Canned Heat - On The Road Again
TTITLE12=Chris Rea - Nineties Blues
TTITLE13=Dire Straits - Fade To Black
TTITLE14=Tony Joe White - Steamy Windows
TTITLE15=Rufus Thomas - Walking The Dog
TTITLE16=George Thoroughgood - Who Do You Love (Live)
TTITLE17=Jimi Hendrix - Red House (Previously Unreleased Version)
EXTD=
EXTT0=
EXTT1=
EXTT2=
EXTT3=
EXTT4=
EXTT5=
EXTT6=
EXTT7=
EXTT8=
EXTT9=
EXTT10=
EXTT11=
EXTT12=
EXTT13=
EXTT14=
EXTT15=
EXTT16=
EXTT17=
PLAYORDER=
